<?xml version="1.0" standalone="no"?>
<!DOCTYPE svg PUBLIC "-//W3C//DTD SVG 20010904//EN"
 "http://www.w3.org/TR/2001/REC-SVG-20010904/DTD/svg10.dtd">
<svg version="1.0" xmlns="http://www.w3.org/2000/svg"
 width="525.000000pt" height="195.000000pt" viewBox="0 0 525.000000 195.000000"
 preserveAspectRatio="xMidYMid meet">
<metadata>
Created by potrace 1.16, written by Peter Selinger 2001-2019
</metadata>
<g transform="translate(0.000000,195.000000) scale(0.100000,-0.100000)"
fill="#000000" stroke="none">
<path d="M2456 1425 c-52 -18 -92 -59 -111 -113 -25 -76 -24 -79 51 -87 69 -7
83 -1 84 36 0 8 10 25 23 37 65 61 157 -21 116 -101 -7 -12 -64 -76 -129 -142
-121 -124 -155 -174 -166 -244 l-7 -41 227 0 226 0 0 65 0 64 -116 3 -116 3
81 80 c105 103 141 157 148 228 11 107 -21 171 -102 208 -48 22 -152 24 -209
4z"/>
<path d="M2897 1293 c-14 -76 -29 -157 -33 -180 l-6 -41 54 -7 c45 -6 60 -3
89 14 94 58 171 -10 147 -129 -8 -38 -48 -80 -78 -80 -27 0 -80 48 -80 72 0
20 -4 21 -71 15 -39 -3 -73 -8 -75 -10 -8 -8 20 -85 43 -115 38 -50 95 -74
177 -75 84 0 138 23 184 78 84 103 64 284 -41 353 -35 23 -51 27 -114 27 -69
0 -74 1 -69 20 3 11 6 30 6 43 0 22 2 22 120 22 l120 0 0 65 0 65 -173 0 -174
0 -26 -137z"/>
<path d="M373 1251 c-18 -5 -39 -14 -47 -20 -25 -21 -46 -77 -46 -123 0 -114
99 -178 206 -133 63 26 93 133 56 204 -31 62 -97 89 -169 72z m89 -78 c52 -60
8 -164 -61 -146 -24 6 -51 50 -51 83 0 24 18 61 34 72 20 14 63 8 78 -9z"/>
<path d="M671 1253 c-82 -16 -125 -126 -87 -218 34 -80 151 -100 208 -36 35
39 35 59 2 71 -34 13 -44 13 -44 -3 0 -8 -9 -22 -20 -32 -42 -38 -98 22 -85
92 11 61 68 85 99 42 11 -17 20 -20 45 -14 36 8 39 22 11 58 -17 22 -81 51
-100 46 -3 -1 -16 -4 -29 -6z"/>
<path d="M1163 1251 c-18 -5 -39 -14 -47 -20 -25 -21 -46 -77 -46 -123 0 -114
99 -178 206 -133 63 26 93 133 56 204 -31 62 -97 89 -169 72z m89 -78 c52 -60
8 -164 -61 -146 -24 6 -51 50 -51 83 0 24 18 61 34 72 20 14 63 8 78 -9z"/>
<path d="M830 1220 c0 -28 2 -30 40 -30 l40 0 0 -110 0 -110 35 0 35 0 0 110
0 110 40 0 c38 0 40 2 40 30 l0 30 -115 0 -115 0 0 -30z"/>
<path d="M1380 1110 l0 -140 98 0 c90 0 100 2 120 23 26 28 29 82 6 108 -12
13 -13 22 -5 38 17 32 13 60 -14 86 -22 23 -32 25 -115 25 l-90 0 0 -140z"/>
<path d="M1650 1110 l0 -140 110 0 110 0 0 30 0 30 -75 0 c-73 0 -75 1 -75 25
0 23 3 24 68 27 l67 3 0 30 0 30 -67 3 c-60 3 -68 5 -68 22 0 18 7 20 75 20
l75 0 0 30 0 30 -110 0 -110 0 0 -140z"/>
<path d="M1900 1110 l0 -140 35 0 35 0 0 56 c0 47 3 55 17 52 10 -2 33 -27 53
-55 33 -49 38 -52 78 -53 23 0 42 3 42 6 0 9 -63 99 -72 102 -4 2 5 14 20 27
21 18 27 32 27 65 0 66 -25 80 -141 80 l-94 0 0 -140z"/>
<path d="M3645 1225 c-33 -32 -32 -61 2 -70 21 -5 31 -1 44 16 18 24 49 21 49
-6 0 -8 -27 -45 -60 -80 -33 -35 -60 -69 -60 -74 0 -5 -3 -16 -6 -25 -5 -14 7
-16 95 -16 l101 0 0 30 c0 29 -1 30 -47 30 l-47 0 36 38 c65 68 75 116 33 157
-18 19 -35 25 -70 25 -35 0 -52 -6 -70 -25z"/>
<path d="M3860 1225 c-22 -23 -25 -37 -28 -108 -4 -100 16 -142 72 -152 79
-15 121 44 114 162 -5 85 -29 117 -89 121 -37 2 -49 -1 -69 -23z"/>
<path d="M4065 1225 c-33 -32 -32 -61 2 -70 21 -5 31 -1 44 16 18 24 49 21 49
-6 0 -8 -27 -45 -60 -80 -33 -35 -60 -69 -60 -74 0 -5 -3 -16 -6 -25 -5 -14 7
-16 95 -16 l101 0 0 30 c0 29 -1 30 -47 30 l-47 0 36 38 c65 68 75 116 33 157
-18 19 -35 25 -70 25 -35 0 -52 -6 -70 -25z"/>
<path d="M4280 1225 c-22 -23 -25 -37 -28 -108 -4 -100 16 -142 72 -152 79
-15 121 44 114 162 -5 85 -29 117 -89 121 -37 2 -49 -1 -69 -23z"/>
<path d="M2202 563 c-7 -3 -18 -17 -23 -31 -14 -37 5 -75 48 -98 43 -23 59
-45 49 -69 -6 -18 -48 -18 -88 0 -14 5 -18 2 -18 -14 0 -41 80 -54 124 -20 51
40 29 109 -44 139 -35 15 -46 39 -26 59 12 12 20 12 41 3 14 -7 30 -12 35 -12
16 0 11 37 -6 44 -19 7 -73 7 -92 -1z"/>
<path d="M2360 468 c1 -114 8 -131 58 -149 38 -13 97 3 112 31 6 10 10 64 10
119 0 83 -3 101 -15 101 -12 0 -15 -16 -15 -82 0 -100 -13 -132 -56 -136 -47
-5 -58 17 -62 124 -3 71 -8 94 -18 94 -11 0 -14 -22 -14 -102z"/>
<path d="M2600 440 c0 -107 3 -130 15 -130 11 0 15 20 17 98 l3 97 44 -80 c50
-91 68 -115 88 -115 10 0 13 28 13 130 0 107 -3 130 -15 130 -11 0 -15 -19
-17 -90 l-3 -91 -50 91 c-40 72 -54 90 -72 90 -23 0 -23 -2 -23 -130z"/>
<path d="M2840 445 l0 -125 55 0 c72 0 101 15 119 62 44 108 -11 188 -129 188
l-45 0 0 -125z m125 60 c38 -37 31 -108 -14 -142 -9 -7 -31 -13 -48 -13 l-33
0 0 90 0 90 35 0 c25 0 44 -8 60 -25z"/>
<path d="M3127 562 c-10 -15 -87 -230 -87 -241 0 -25 32 -9 46 24 14 33 17 35
63 35 46 0 49 -2 57 -32 10 -35 44 -52 44 -22 0 9 -19 68 -41 130 -32 88 -46
114 -60 114 -10 0 -20 -3 -22 -8z"/>
<path d="M3250 560 c0 -6 14 -39 32 -73 20 -38 34 -83 38 -117 3 -40 9 -55 20
-55 11 0 16 16 20 60 4 40 17 81 38 122 37 73 37 73 14 73 -12 0 -26 -17 -42
-50 -13 -27 -26 -50 -30 -50 -4 0 -17 23 -30 50 -16 33 -30 50 -42 50 -10 0
-18 -5 -18 -10z"/>
</g>
</svg>
