<?xml version="1.0" standalone="no"?>
<!DOCTYPE svg PUBLIC "-//W3C//DTD SVG 1.1//EN" "http://www.w3.org/Graphics/SVG/1.1/DTD/svg11.dtd" >
<svg xmlns="http://www.w3.org/2000/svg">
<metadata>Generated by IcoMoon</metadata>
<defs>
<font id="icomoon" horiz-adv-x="1024">
<font-face units-per-em="1024" ascent="960" descent="-64" />
<missing-glyph horiz-adv-x="1024" />
<glyph unicode="&#x20;" horiz-adv-x="512" d="" />
<glyph unicode="&#xe900;" glyph-name="add_to_home_filled" d="M753 832c38.196 0 74.108-14.877 101.117-41.885s41.883-62.921 41.883-101.118v0-481.998c0-78.851-64.149-143-143-143v0h-481.998c-78.85 0-143.002 64.149-143.002 142.998v0 482.001c0 78.846 64.149 143.001 143.001 143.001v0zM751.943 266.105h-439.465c-12.588 0-22.794-9.049-22.794-20.211s10.206-20.211 22.794-20.211h439.465c12.588 0 22.794 9.049 22.794 20.211s-10.206 20.211-22.794 20.211zM512.001 670.316c-12.398 0-22.45-9.6-22.45-21.441l0.001-228.725-80.703 77.075c-8.766 8.373-22.981 8.373-31.749 0s-8.767-21.948 0-30.322l119.026-113.674c4.21-4.022 9.92-6.281 15.874-6.281s11.665 2.26 15.875 6.281l119.023 113.677c8.766 8.373 8.766 21.948-0.001 30.322-8.766 8.372-22.981 8.373-31.749 0l-80.697-77.073-0.001 228.721c0 11.841-10.052 21.441-22.45 21.441z" />
<glyph unicode="&#xe901;" glyph-name="add_to_home" d="M753 832c38.196 0 74.108-14.877 101.117-41.885 25.080-25.080 39.696-57.836 41.656-92.97l0.227-8.148v-481.998c0-76.461-60.32-139.098-135.873-142.824l-7.126-0.175h-481.998c-76.461 0-139.101 60.32-142.827 135.872l-0.175 7.126v482.001c0 76.457 60.32 139.099 135.875 142.826l7.126 0.175h481.999zM753 779.636h-481.999c-48.010 0-87.492-37.637-90.459-84.919l-0.179-5.718v-482.001c0-48.008 37.636-87.49 84.92-90.456l5.719-0.179h481.998c48.010 0 87.491 37.634 90.457 84.917l0.179 5.719v481.998c0 24.311-9.358 46.903-26.545 64.090-15.471 15.471-35.319 24.598-56.854 26.269l-7.237 0.279zM645.146 489.283c-8.652 8.134-22.683 8.136-31.336 0l-79.649-74.884-0.001 222.223c0 11.505-9.921 20.832-22.158 20.832s-22.158-9.327-22.158-20.832l0.001-222.227-79.655 74.885c-8.652 8.136-22.683 8.136-31.336 0s-8.654-21.325 0-29.46l117.48-110.445c4.155-3.908 9.791-6.102 15.667-6.102s11.513 2.196 15.669 6.102l117.477 110.448c8.652 8.136 8.652 21.325-0.001 29.46zM670.141 273.455h-316.282c-9.060 0-16.405-7.815-16.405-17.455s7.345-17.455 16.405-17.455h316.282c9.060 0 16.405 7.815 16.405 17.455s-7.345 17.455-16.405 17.455z" />
<glyph unicode="&#xe902;" glyph-name="chevron_left" d="M724.661 783.583c16.279-17.861 15.027-44.532-3.757-61.038l-311.733-274.503 311.703-274.562c20.114-17.675 20.114-47.021 0.001-64.74-19.328-16.984-50.168-16.984-69.486-0.009l-348.485 306.899c-19.89 17.563-19.874 47.246 0.048 64.748l348.466 306.883c19.325 16.982 50.12 16.982 69.475 0.016l3.767-3.694z" />
<glyph unicode="&#xe903;" glyph-name="chevron_right" d="M321.493 853.028l-5.35-5.771c-24.966-29.877-23.183-74.424 5.35-102.206l304.361-296.996-304.351-297.098c-30.4-29.6-30.4-78.283-0.003-107.955 29.668-28.887 77.173-28.887 106.809-0.032l359.749 351.050c30.169 29.519 30.145 78.574-0.071 107.988l-359.689 350.992c-27.681 26.953-70.853 28.75-100.611 5.439l-6.193-5.411z" />
<glyph unicode="&#xe904;" glyph-name="times-bold" d="M855.519 178.176l-610.148 624.77c-26.891 26.262-69.704 25.755-95.8-0.961-26.525-27.169-26.525-70.541 0.003-97.706l610.148-624.77c26.891-26.262 69.704-25.755 95.8 0.961 26.525 27.169 26.525 70.541-0.003 97.706zM758.76 801.981l-609.185-623.805c-26.528-27.165-26.528-70.537-0.001-97.703l0.964-0.964c26.891-26.262 69.704-25.755 95.797 0.965l609.185 623.805c26.528 27.165 26.528 70.537 0.001 97.703l-0.964 0.964c-26.891 26.262-69.704 25.755-95.797-0.965z" />
<glyph unicode="&#xe905;" glyph-name="fb" d="M896 445.653c0 213.374-171.923 386.347-384 386.347s-384-172.973-384-386.347c0-192.837 140.423-352.67 324-381.653v269.975h-97.5v111.678h97.5v85.117c0 96.828 57.329 150.313 145.043 150.313 42.013 0 85.957-7.546 85.957-7.546v-95.078h-48.421c-47.702 0-62.579-29.781-62.579-60.334v-72.472h106.5l-17.025-111.678h-89.475v-269.975c183.577 28.984 324 188.816 324 381.653z" />
<glyph unicode="&#xe906;" glyph-name="Filled" d="M202.667 789.333h643.368c17.673 0 32-14.327 32-32s-14.327-32-32-32h-643.368c-17.673 0-32 14.327-32 32s14.327 32 32 32zM202.667 490.667h643.368c17.673 0 32-14.327 32-32s-14.327-32-32-32h-643.368c-17.673 0-32 14.327-32 32s14.327 32 32 32zM202.667 192h643.368c17.673 0 32-14.327 32-32s-14.327-32-32-32h-643.368c-17.673 0-32 14.327-32 32s14.327 32 32 32z" />
<glyph unicode="&#xe907;" glyph-name="filter" d="M729.718 574.419c-51.213 0-96.102-33.645-109.572-83.366h-534.813v-61.56h534.816c13.467-47.354 58.356-83.357 109.569-83.357 51.215 0 96.107 36.003 109.574 83.357h98.408v61.56h-98.406c-13.47 49.721-58.361 83.366-109.577 83.366zM729.718 407.554c-29.253 0-53.055 23.8-53.055 53.050 0 29.253 23.802 53.055 53.055 53.055 29.25 0 53.048-23.802 53.048-53.055 0-29.25-23.795-53.050-53.048-53.050zM419.492 746.763c-13.467 49.721-58.361 83.366-109.577 83.366-51.213 0-96.102-33.645-109.567-83.366h-115.015v-59.192h115.013c13.467-49.721 58.356-83.359 109.567-83.359 51.215 0 96.107 33.638 109.574 83.359h518.213v59.192h-518.209zM309.916 664.114c-29.253 0-53.053 23.8-53.053 53.053 0 29.25 23.8 53.050 53.053 53.050 29.25 0 53.050-23.8 53.050-53.050 0-29.253-23.8-53.053-53.050-53.053zM409.235 321.074c-51.211 0-96.1-36.010-109.569-83.364h-214.333v-61.56h214.333c13.467-49.721 58.356-83.362 109.567-83.362 51.213 0 96.104 33.64 109.572 83.362h418.896v61.56h-418.894c-13.467 47.354-58.356 83.364-109.572 83.364zM409.235 153.248c-29.253 0-53.055 23.8-53.055 53.050 0 29.253 23.802 53.053 53.055 53.053 29.25 0 53.048-23.8 53.048-53.053 0-29.25-23.798-53.050-53.048-53.050z" />
<glyph unicode="&#xe908;" glyph-name="globe" d="M819.955 713.287c-75.986 75.982-176.825 118.064-284.186 118.691-0.418 0.019-0.833 0.019-1.251 0.019-223.54 0.872-406.518-180.112-406.518-405.326 0-224.014 181.286-405.337 405.337-405.337 107.995 0 209.917 42.024 286.618 118.719 158.403 158.408 158.425 414.807 0 573.234zM557.088 89.986v145.193c36.924-2.416 72.823-10.46 106.67-23.703-27.477-46.088-63.564-87.528-106.67-121.49v0zM557.088 282.763v120.157h166.421c-3.072-51.557-16.065-102.115-37.549-149.12-40.719 16.548-84.157 26.382-128.872 28.963v0zM557.088 450.421v120.157c44.715 2.581 88.153 12.415 128.874 28.963 21.483-47.003 34.476-97.563 37.549-149.12h-166.423zM557.088 618.161v145.193c43.107-33.963 79.193-75.402 106.67-121.49-33.847-13.243-69.747-21.287-106.67-23.703zM616.829 774.648c54.656-13.113 104.466-38.798 146.202-73.822-17.588-14.762-36.395-27.685-56.171-38.678-24.121 41.351-54.434 79.394-90.031 112.5zM509.587 760.824v-142.663c-35.985 2.354-71.001 10.046-104.086 22.693 26.876 45.353 62.074 86.236 104.086 119.97zM362.218 660.831c-20.655 11.275-40.274 24.637-58.574 39.995 42.817 35.929 94.13 62.042 150.456 74.824-36.442-33.69-67.395-72.538-91.882-114.82zM509.587 570.576v-120.157h-163.243c3.051 51.168 15.87 101.35 37.065 148.051 39.942-15.897 82.445-25.368 126.179-27.894zM509.587 402.92v-120.157c-43.734-2.525-86.237-11.997-126.177-27.894-21.195 46.701-34.013 96.885-37.065 148.051h163.242zM509.587 235.179v-142.663c-42.013 33.735-77.21 74.617-104.086 119.97 33.086 12.646 68.101 20.338 104.086 22.693zM454.1 77.689c-56.326 12.782-107.639 38.893-150.456 74.824 18.3 15.358 37.92 28.72 58.574 39.995 24.486-42.282 55.439-81.129 91.882-114.82zM706.861 191.192c19.774-10.992 38.581-23.915 56.171-38.678-41.735-35.024-91.546-60.709-146.202-73.822 35.595 33.106 65.908 71.149 90.031 112.5zM728.791 233.372c24.498 53.349 39.158 110.88 42.294 169.548h119.282c-5.497-83.465-39.72-159.204-92.876-217.386-21.385 18.416-44.392 34.425-68.7 47.838v0zM890.367 450.421h-119.282c-3.135 58.668-17.797 116.199-42.294 169.548 24.308 13.413 47.315 29.422 68.7 47.838 53.156-58.183 87.38-133.923 92.876-217.386v0zM269.184 667.807c22.13-19.059 46.012-35.518 71.259-49.21-24.119-52.965-38.564-110.009-41.672-168.175h-122.463c5.496 83.463 39.72 159.203 92.876 217.386zM176.308 402.92h122.463c3.108-58.166 17.553-115.211 41.672-168.175-25.246-13.693-49.128-30.152-71.259-49.21-53.156 58.182-87.38 133.921-92.876 217.386v0z" />
<glyph unicode="&#xe909;" glyph-name="ig" d="M511.88 831.758c-104.256 0-117.329-0.442-158.274-2.31-40.859-1.864-68.765-8.354-93.182-17.844-25.243-9.809-46.651-22.935-67.994-44.276-21.341-21.342-34.467-42.75-44.276-67.994-9.49-24.418-15.98-52.323-17.844-93.182-1.868-40.945-2.31-54.018-2.31-158.274 0-104.254 0.442-117.327 2.31-158.272 1.864-40.859 8.354-68.765 17.844-93.182 9.809-25.243 22.935-46.651 44.276-67.994 21.342-21.341 42.75-34.467 67.994-44.277 24.418-9.489 52.323-15.979 93.182-17.842 40.945-1.868 54.018-2.31 158.274-2.31 104.254 0 117.327 0.442 158.272 2.31 40.859 1.864 68.765 8.354 93.182 17.842 25.243 9.81 46.651 22.936 67.994 44.277 21.341 21.342 34.467 42.75 44.277 67.994 9.489 24.418 15.979 52.323 17.842 93.182 1.868 40.945 2.31 54.018 2.31 158.272 0 104.256-0.442 117.329-2.31 158.274-1.864 40.859-8.354 68.765-17.842 93.182-9.81 25.243-22.936 46.651-44.277 67.994-21.342 21.341-42.75 34.467-67.994 44.276-24.418 9.49-52.323 15.98-93.182 17.844-40.945 1.868-54.018 2.31-158.272 2.31zM511.88 762.59c102.499 0 114.641-0.392 155.119-2.238 37.428-1.707 57.754-7.96 71.281-13.218 17.918-6.964 30.706-15.282 44.139-28.716 13.434-13.432 21.752-26.22 28.716-44.139 5.257-13.527 11.511-33.853 13.218-71.281 1.847-40.478 2.238-52.62 2.238-155.121 0-102.499-0.392-114.641-2.238-155.119-1.707-37.428-7.96-57.754-13.218-71.281-6.964-17.918-15.282-30.706-28.716-44.139-13.432-13.434-26.22-21.752-44.139-28.716-13.527-5.257-33.853-11.511-71.281-13.218-40.472-1.847-52.613-2.238-155.119-2.238-102.508 0-114.647 0.392-155.121 2.238-37.428 1.707-57.754 7.96-71.281 13.218-17.918 6.964-30.706 15.282-44.139 28.716-13.432 13.432-21.752 26.22-28.716 44.139-5.257 13.527-11.511 33.853-13.218 71.281-1.847 40.478-2.238 52.62-2.238 155.119 0 102.501 0.392 114.642 2.238 155.121 1.707 37.428 7.96 57.754 13.218 71.281 6.964 17.918 15.282 30.706 28.716 44.139 13.432 13.434 26.22 21.752 44.139 28.716 13.527 5.257 33.853 11.511 71.281 13.218 40.478 1.847 52.62 2.238 155.121 2.238v0zM511.88 319.919c-70.671 0-127.96 57.289-127.96 127.959 0 70.671 57.289 127.96 127.96 127.96s127.959-57.289 127.959-127.96c0-70.67-57.289-127.959-127.959-127.959zM511.88 645.006c-108.872 0-197.128-88.256-197.128-197.128 0-108.87 88.256-197.126 197.128-197.126 108.87 0 197.126 88.256 197.126 197.126 0 108.872-88.256 197.128-197.126 197.128v0zM762.86 652.794c0-25.442-20.625-46.065-46.066-46.065s-46.065 20.623-46.065 46.065 20.625 46.066 46.065 46.066c25.442 0 46.066-20.625 46.066-46.066z" />
<glyph unicode="&#xe90a;" glyph-name="info" d="M513.003 554.812c-22.257 0-38.082-9.398-38.082-23.245v-188.428c0-11.869 15.827-23.739 38.082-23.739 21.266 0 38.575 11.87 38.575 23.739v188.428c0 13.848-17.309 23.245-38.575 23.245zM513.003 681.767c-22.75 0-40.554-18.797-40.554-40.442s17.805-41.012 40.554-41.012c22.257 0 40.061 19.367 40.061 41.012 0 21.643-17.806 40.442-40.061 40.442zM513 874.667c-212.803 0-385-172.109-385-384.778 0-173.654 114.333-317.845 268.48-366.816l87.556-129.057c6.514-9.6 17.362-15.349 28.964-15.349s22.451 5.749 28.964 15.349l87.556 129.057c154.215 48.993 268.48 193.237 268.48 366.816 0 212.804-172.335 384.778-385 384.778zM590.046 213.549c-7.214-1.994-13.478-6.448-17.684-12.572l-59.362-86.458-59.361 86.456c-4.207 6.124-10.471 10.58-17.685 12.572-118.753 32.811-208.045 140.725-208.045 271.104 0 155.223 127.892 281.505 285.091 281.505s285.091-126.281 285.091-281.505c0-130.509-89.424-238.329-208.045-271.102z" />
<glyph unicode="&#xe90b;" glyph-name="mail" d="M867.417 746.667h-668.167c-39.238 0-71.25-30.933-71.25-68.923v-459.487c0-37.862 31.869-68.923 71.25-68.923h668.167c39.14 0 71.25 30.829 71.25 68.923v459.487c0 37.862-31.869 68.923-71.25 68.923zM857.578 700.718l-322.734-312.195-325.525 312.195h648.259zM175.5 227.771v440.677l228.758-219.39-228.758-221.287zM209.087 195.282l228.903 221.427 80.207-76.921c9.285-8.905 24.268-8.876 33.514 0.070l78.206 75.652 227.663-220.228h-648.492zM891.167 227.772l-227.663 220.228 227.663 220.229v-440.457z" />
<glyph unicode="&#xe90c;" glyph-name="me_filled" d="M512.001 405.333c-220.129 0-341.334-111.243-341.334-312.81 0-16.164 11.586-28.523 26.736-28.523h629.196c15.151 0 26.736 12.361 26.736 28.523 0 201.569-121.205 312.81-341.332 312.81zM512.001 448c94.338 0 170.666 79.021 170.666 175.962 0 94.498-73.756 165.371-170.666 165.371s-170.667-70.873-170.667-165.371c0-96.943 76.328-175.962 170.667-175.962z" />
<glyph unicode="&#xe90d;" glyph-name="me" d="M515.475 405.333c-220.357 0-344.808-107.385-344.808-299.589 0-23.413 18.258-41.745 41.639-41.745h606.336c23.382 0 41.639 18.332 41.639 41.745 0 192.205-124.45 299.589-344.807 299.589zM515.475 362.667c194.409 0 298.666-86.884 298.666-246.791 0-5.442-3.884-9.209-9.435-9.209h-578.464c-5.55 0-9.435 3.767-9.435 9.209 0 159.906 104.258 246.791 298.667 246.791zM514.972 789.333c-98.464 0-173.639-72.659-173.639-168.701 0-98.405 77.66-178.575 173.639-178.575 95.977 0 173.637 80.172 173.637 178.575 0 96.042-75.174 168.701-173.637 168.701zM514.972 743.695c73.155 0 127.999-53.009 127.999-123.63 0-73.090-57.423-132.37-127.999-132.37-70.578 0-128.001 59.279-128.001 132.37 0 70.62 54.845 123.63 128.001 123.63z" />
<glyph unicode="&#xe90e;" glyph-name="menu" d="M206.933 789.333h634.835c20.030 0 36.267-16.237 36.267-36.267s-16.237-36.267-36.267-36.267h-634.835c-20.030 0-36.267 16.237-36.267 36.267s16.237 36.267 36.267 36.267zM206.933 490.667h634.835c20.030 0 36.267-16.237 36.267-36.267s-16.237-36.267-36.267-36.267h-634.835c-20.030 0-36.267 16.237-36.267 36.267s16.237 36.267 36.267 36.267zM206.933 192h634.835c20.030 0 36.267-16.237 36.267-36.267s-16.237-36.267-36.267-36.267h-634.835c-20.030 0-36.267 16.237-36.267 36.267s16.237 36.267 36.267 36.267z" />
<glyph unicode="&#xe90f;" glyph-name="mobile" d="M733.905 874.667h-443.81c-42.474 0-76.762-32.334-76.762-72.139v-709.128c0-39.768 34.287-72.066 76.762-72.066h443.81c42.398 0 76.762 32.298 76.762 72.066v709.128c0 39.804-34.364 72.139-76.762 72.139zM402.489 830.857h219.099c5.535 0 10.032-7.759 10.032-17.358s-4.497-17.394-10.032-17.394h-219.099c-5.574 0-9.994 7.795-9.994 17.394s4.42 17.358 9.994 17.358zM512.038 60.897c-27.022 0-49.009 20.642-49.009 46.047s21.987 45.975 49.009 45.975c26.945 0 48.932-20.57 48.932-45.975s-21.987-46.047-48.932-46.047zM753.163 211.633h-482.287v541.31h482.287v-541.31z" />
<glyph unicode="&#xe910;" glyph-name="nonrenew" d="M512 832c205.679 0 374.2-158.615 383.59-358.735l0.361-11.371v-12.262c-3.405-205.262-174.391-369.919-383.951-369.919-211.927 0-384 168.252-384 376.143s172.073 376.143 384 376.143zM512 739.683c-161.249 0-291.683-127.244-291.683-283.826s130.434-283.826 291.683-283.826c155.816 0 283.162 118.927 291.27 268.453l0.37 10.241v10.066c-2.704 154.498-132.283 278.892-291.64 278.892zM376.027 502.997h282.844c21.696 0 39.284-17.588 39.284-39.284v0c0-21.696-17.588-39.284-39.284-39.284h-282.844c-21.696 0-39.284 17.588-39.284 39.284v0c0 21.696 17.588 39.284 39.284 39.284z" />
<glyph unicode="&#xe911;" glyph-name="notifications" d="M533.337 832c-145.080 0-262.322-125.441-262.322-278.713v-89.707c0-50.305-12.773-99.653-36.895-142.7l-57.449-102.396c-7.802-13.821-8.008-30.927-0.584-45.004 7.819-14.754 22.898-24.147 39.537-24.147h635.422c16.642 0 31.725 9.394 39.515 24.106 7.446 14.122 7.241 31.224-0.597 45.109l-57.42 102.345c-24.115 43.034-36.888 92.382-36.888 142.687v89.707c0 153.272-117.242 278.713-262.322 278.713zM533.337 775.523c113.035 0 205.884-99.342 205.884-222.236v-89.707l0.27-13.81c2.155-55.141 17.187-108.955 43.836-156.513l49.060-87.447h-598.129l49.083 87.434c28.877 51.533 44.113 110.397 44.113 170.336v89.707c0 122.894 92.849 222.236 205.884 222.236zM585.893 188.293c-13.196-7.465-18.482-23.598-12.582-37.222l1.889-3.645c3.965-6.511 6.156-14.383 6.156-22.075 0-24.737-21.341-45.349-48.022-45.349s-48.022 20.612-48.022 45.349c0 6.154 1.402 12.422 3.993 18.018l2.163 4.058c8.628 14.331 3.653 32.72-10.6 40.814-13.902 7.635-31.259 3.279-39.517-10.284-9.604-15.864-14.683-34.044-14.683-52.607 0-57.638 48.019-104.016 106.629-104.016 58.593 0 106.617 46.359 106.705 103.999 0 18.581-5.080 36.761-14.669 52.601-8.335 13.587-25.729 17.949-39.438 10.36z" />
<glyph unicode="&#xe912;" glyph-name="phone" d="M446.396 382.34c-73.381 73.38-89.95 146.76-93.688 176.16-1.045 8.129 1.753 16.281 7.569 22.056l59.383 59.356c8.735 8.73 10.286 22.335 3.738 32.806l-94.55 146.813c-7.244 11.595-22.117 15.78-34.344 9.663l-151.786-71.485c-9.888-4.869-15.703-15.374-14.581-26.338 7.953-75.554 40.892-261.284 223.417-443.82s368.23-215.462 443.825-223.415c10.964-1.123 21.469 4.693 26.338 14.581l71.485 151.784c6.094 12.201 1.937 27.034-9.61 34.291l-146.815 94.522c-10.465 6.554-24.070 5.015-32.807-3.711l-59.357-59.383c-5.775-5.816-13.927-8.613-22.057-7.569-29.4 3.738-102.781 20.307-176.162 93.687z" />
<glyph unicode="&#xe913;" glyph-name="renew" d="M928.762 589.659l-166.586 170.088c-9.043 9.227-26.797 9.227-35.84 0l-166.586-170.088c-6.14-6.251-7.615-15.18-3.76-22.792 3.903-7.611 12.375-12.459 21.704-12.459h71.394v-247.393c0-55.023-21.18-108.984-59.638-151.973l-30.319-33.847c-6.235-6.974-6.949-16.711-1.761-24.323 4.379-6.421 12.137-10.205 20.323-10.205 1.523 0 3.094 0.128 4.664 0.425 148.975 26.619 257.113 144.404 257.113 280.177v187.139h71.394c9.329 0 17.801 4.847 21.656 12.459 3.903 7.611 2.38 16.541-3.76 22.792zM475.668 299.166h-71.4v247.264c0 54.995 21.182 108.927 59.643 151.894l30.321 33.787c6.236 7.012 6.997 16.702 1.761 24.352-5.188 7.65-14.994 11.56-24.99 9.775-148.987-26.605-257.134-144.329-257.134-280.031v-187.042h-71.4c-9.33 0-17.802-4.845-21.658-12.452-3.903-7.607-2.38-16.532 3.76-22.78l166.599-169.999c4.522-4.632 11.043-7.267 17.898-7.267s13.376 2.677 17.898 7.267l166.599 169.999c6.14 6.247 7.616 15.172 3.76 22.78s-12.328 12.452-21.658 12.452z" />
<glyph unicode="&#xe914;" glyph-name="share" d="M778.739 882.133c76.28 0 138.356-62.065 138.356-138.356s-62.076-138.356-138.356-138.356c-76.275 0-138.356 62.068-138.356 138.356s62.080 138.356 138.356 138.356zM778.739 820.533c-42.31 0-76.756-34.434-76.756-76.756s34.446-76.756 76.756-76.756c42.31 0 76.756 34.434 76.756 76.756s-34.446 76.756-76.756 76.756zM778.739 290.578c76.28 0 138.356-62.065 138.356-138.356s-62.076-138.356-138.356-138.356c-76.275 0-138.356 62.068-138.356 138.356s62.080 138.356 138.356 138.356zM778.739 228.978c-42.31 0-76.756-34.434-76.756-76.756s34.446-76.756 76.756-76.756c42.31 0 76.756 34.434 76.756 76.756s-34.446 76.756-76.756 76.756zM258.889 586.356c76.28 0 138.356-62.065 138.356-138.356s-62.076-138.356-138.356-138.356c-76.28 0-138.356 62.065-138.356 138.356s62.076 138.356 138.356 138.356zM258.889 524.756c-42.31 0-76.756-34.434-76.756-76.756s34.446-76.756 76.756-76.756c42.31 0 76.756 34.434 76.756 76.756s-34.446 76.756-76.756 76.756zM669.879 717.448l-332.655-189.65c-14.778-8.411-19.923-27.224-11.499-42.011 5.488-9.693 15.768-15.525 26.775-15.525 5.268 0 10.468 1.361 15.18 4.016l332.689 189.663c14.779 8.419 19.922 27.225 11.506 41.998-8.382 14.839-27.247 20.012-41.996 11.509zM325.752 410.202c-8.412-14.779-3.27-33.589 11.508-42l332.669-189.659c4.702-2.686 9.913-4.058 15.204-4.058 10.977 0 21.25 5.841 26.777 15.568 8.415 14.784 3.27 33.588-11.508 42.007l-332.658 189.65c-14.792 8.465-33.614 3.315-41.991-11.508z" />
<glyph unicode="&#xe915;" glyph-name="store_filled" d="M846.2 150.476l-52.56 362.645c-3.594 41.31-37.238 72.487-78.246 72.487-9.421 0-17.087-7.749-17.087-17.287v-85.502c0-8.465-6.324-15.857-14.671-16.393-9.152-0.596-16.753 6.736-16.753 15.857v184.794c0 90.947-73.12 164.924-163.013 164.924s-163.013-73.977-163.013-164.924v-81.468h-48.511c-41.009 0-74.652-31.177-78.246-72.487l-43.127-362.645c-4.026-46.348 32.098-86.476 78.266-86.476h518.695c46.174 0 82.292 40.134 78.266 86.476zM413.526 179.485h-113.913c-8.677 0-15.712 7.118-15.712 15.896s7.035 15.896 15.712 15.896h113.913c8.677 0 15.712-7.118 15.712-15.896s-7.035-15.896-15.712-15.896zM413.526 258.966h-113.913c-8.677 0-15.712 7.118-15.712 15.896s7.035 15.896 15.712 15.896h113.913c8.677 0 15.712-7.118 15.712-15.896s-7.035-15.896-15.712-15.896zM635.459 585.608h-214.666c-9.427 0-17.087-7.749-17.087-17.287v-85.502c0-8.465-6.324-15.857-14.671-16.393-9.152-0.596-16.753 6.736-16.753 15.857v184.794c0 73.401 59.038 133.131 131.589 133.131s131.589-59.73 131.589-133.131v-81.468z" />
<glyph unicode="&#xe916;" glyph-name="store" d="M412.443 288h-111.222c-8.486 0-15.355-6.866-15.355-15.353 0-8.47 6.868-15.337 15.355-15.337h111.222c8.486 0 15.355 6.866 15.355 15.337 0 8.486-6.868 15.353-15.355 15.353zM412.443 211.281h-111.222c-8.486 0-15.355-6.866-15.355-15.335 0-8.488 6.868-15.355 15.355-15.355h111.222c8.486 0 15.355 6.866 15.355 15.355 0 8.468-6.868 15.335-15.355 15.335zM254.319 106.667c-26.985 0-48.121 22.793-45.752 49.399l46.614 357.255c2.099 23.609 21.782 41.417 45.752 41.417h47.278v-68.112c0-8.372 6.854-15.148 15.305-15.148s15.305 6.776 15.305 15.148v175.956c0 69.886 57.522 126.752 128.232 126.752s128.232-56.866 128.232-126.752v-175.956c0-8.372 6.854-15.148 15.305-15.148s15.305 6.776 15.305 15.148v68.112h47.278c23.971 0 43.653-17.808 45.752-41.417l46.614-357.255c2.368-26.606-18.767-49.399-45.752-49.399h-505.466zM795.511 518.247c-3.592 40.653-37.079 71.317-77.898 71.317h-48.296v80.17c0 89.463-72.784 162.265-162.265 162.265s-162.265-72.802-162.265-162.265v-80.17h-48.296c-40.818 0-74.305-30.664-77.898-71.317l-47.618-369.165c-4.032-45.675 32.039-85.082 77.898-85.082h516.36c45.859 0 81.93 39.407 77.898 85.082l-47.618 369.165zM588.869 577.072c0-8.468-6.868-15.337-15.355-15.337h-145.743c-8.486 0-15.355 6.868-15.355 15.337s6.868 15.337 15.355 15.337h145.743c8.486 0 15.355-6.868 15.355-15.337z" />
<glyph unicode="&#xe917;" glyph-name="tick" d="M430.845 106.667c-26.857 0-53.712 11.511-69.059 34.529l-214.848 276.234c-30.693 38.365-23.019 92.077 15.347 122.77s92.077 23.019 122.77-15.347l145.789-187.993 322.274 418.187c30.693 38.365 84.405 46.040 122.77 15.347s46.040-84.405 15.347-122.77l-391.333-506.428c-19.183-19.183-42.201-34.529-69.059-34.529z" />
<glyph unicode="&#xe918;" glyph-name="tiktok" d="M801.597 663.303c-78.357 0-142.104 65.584-142.104 146.197 0 12.428-9.79 22.5-21.87 22.5h-117.13c-12.074 0-21.87-10.072-21.87-22.5v-494.051c0-47.391-37.481-85.945-83.545-85.945s-83.539 38.555-83.539 85.945c0 47.396 37.475 85.951 83.539 85.951 12.080 0 21.87 10.072 21.87 22.5v120.504c0 12.422-9.79 22.5-21.87 22.5-134.769 0-244.41-112.805-244.41-251.455s109.641-251.449 244.41-251.449c134.769 0 244.416 112.799 244.416 251.449v218.689c43.524-23.877 91.963-36.34 142.104-36.34 12.080 0 21.87 10.072 21.87 22.5v120.504c0 12.422-9.79 22.5-21.87 22.5z" />
<glyph unicode="&#xe919;" glyph-name="times" d="M276.889 773.404l576.999-590.847c17.825-18.253 17.825-47.396 0-65.65-17.289-17.704-45.656-18.040-63.36-0.751-0.253 0.247-0.504 0.498-0.751 0.751l-576.999 590.847c-17.825 18.253-17.825 47.396 0 65.65 17.289 17.704 45.656 18.040 63.36 0.751 0.253-0.247 0.504-0.498 0.751-0.751zM212.778 182.557l576.999 590.847c17.289 17.704 45.656 18.040 63.36 0.751 0.253-0.247 0.504-0.498 0.751-0.751 17.825-18.253 17.825-47.396 0-65.65l-576.999-590.847c-17.289-17.704-45.656-18.040-63.36-0.751-0.253 0.247-0.504 0.498-0.751 0.751-17.825 18.253-17.825 47.396 0 65.65z" />
<glyph unicode="&#xe91a;" glyph-name="yt" d="M424.727 336.215v243.648l223.030-121.829-223.030-121.819zM920.834 656.526c-9.813 35.483-38.73 63.424-75.442 72.906-66.545 17.234-333.392 17.234-333.392 17.234s-266.846 0-333.392-17.234c-36.713-9.483-65.629-37.424-75.442-72.906-17.833-64.308-17.833-198.487-17.833-198.487s0-134.175 17.833-198.487c9.813-35.483 38.73-63.424 75.442-72.911 66.545-17.229 333.392-17.229 333.392-17.229s266.846 0 333.392 17.229c36.713 9.487 65.629 37.428 75.442 72.911 17.833 64.313 17.833 198.487 17.833 198.487s0 134.179-17.833 198.487v0z" />
<glyph unicode="&#xe91b;" glyph-name="ios_a2hs" d="M414.041 659.006v-88.080h-163.926c-2.308 0-3.893-0.781-4.261-0.135l-0.040 0.786-0.299-1.347v-477.187l0.245 0.242 1.376-0.622 2.98-0.316h539.285c2.34 0 3.904 0.761 4.264 0.108l0.037-0.789 0.3 1.378v477.187l-0.235-0.224-1.359 0.605-3.008 0.316h-163.926v88.080h163.926c47.23 0 87.503-31.328 95.252-74.744l0.915-6.601 0.348-7.432v-477.187c0-44.433-35.092-80.826-81.581-87.67l-7.056-0.802-7.878-0.303h-539.285c-47.23 0-87.503 31.328-95.252 74.744l-0.915 6.601-0.348 7.432v477.187c0 44.433 35.092 80.826 81.581 87.67l7.056 0.802 7.878 0.303h163.926zM489.498 880.189c13.629 12.309 33.488 14.885 49.74 7.202l4.758-2.613 1.202-0.833 4.85-3.756 127.708-115.342c19.068-17.222 18.934-46.691-0.63-64.34-8.327-7.091-18.835-10.909-29.782-10.909-7.201 0-14.151 1.565-20.983 5.064l-5.105 2.994-4.325 3.404-52.75 47.655 0.027-390.666c0-15.743-8.548-29.596-22.267-37.431l-4.76-2.383-5.115-1.904-6.752-1.375-5.677-0.387c-19.893 0-37.433 12.945-43.002 32.614l-1.137 5.054-0.432 5.81-0.057 390.539-52.976-47.968c-10.292-9.030-23.994-12.765-37.661-10.435l-5.845 1.372-5.781 2.129-6.468 3.782-4.488 3.592c-15.605 14.094-18.583 36.813-7.26 55.011l3.129 4.448 4.131 4.329 127.708 115.342z" />
<glyph unicode="&#xe91c;" glyph-name="android_a2hs" d="M512 669.867c-56.554 0-102.4 45.846-102.4 102.4s45.846 102.4 102.4 102.4c56.554 0 102.4-45.846 102.4-102.4s-45.846-102.4-102.4-102.4zM512 337.067c-56.554 0-102.4 45.846-102.4 102.4s45.846 102.4 102.4 102.4c56.554 0 102.4-45.846 102.4-102.4s-45.846-102.4-102.4-102.4zM512 4.267c-56.554 0-102.4 45.846-102.4 102.4s45.846 102.4 102.4 102.4c56.554 0 102.4-45.846 102.4-102.4s-45.846-102.4-102.4-102.4z" />
<glyph unicode="&#xe91d;" glyph-name="online" d="M825.6 531.627c-29.013 147.2-158.293 257.707-313.6 257.707-123.307 0-230.4-69.973-283.733-172.373-128.427-13.653-228.267-122.453-228.267-254.293 0-141.227 114.773-256 256-256h554.667c117.76 0 213.333 95.573 213.333 213.333 0 112.64-87.467 203.947-198.4 211.627zM810.667 192h-554.667c-94.293 0-170.667 76.373-170.667 170.667 0 87.467 65.28 160.427 151.893 169.387l45.653 4.693 21.333 40.533c40.533 78.080 119.893 126.72 207.787 126.72 111.787 0 208.213-79.36 229.973-189.013l12.8-64 65.28-4.693c66.56-4.267 118.613-60.16 118.613-126.293 0-70.4-57.6-128-128-128zM426.667 354.987l-89.173 89.173-60.16-60.16 149.333-149.333 256.427 256.427-60.16 60.16-196.267-196.267z" />
<glyph unicode="&#xe91e;" glyph-name="offline" d="M825.6 531.627c-29.013 147.2-158.293 257.707-313.6 257.707-63.147 0-121.6-18.347-171.093-49.92l62.293-62.293c32.427 17.067 69.547 26.88 108.8 26.88 129.707 0 234.667-104.96 234.667-234.667v-21.333h64c70.827 0 128-57.173 128-128 0-48.213-27.307-90.027-66.56-111.787l61.867-61.867c54.187 38.827 90.027 101.973 90.027 173.653 0 112.64-87.467 203.947-198.4 211.627zM128 735.147l117.333-116.907c-136.107-5.973-245.333-117.76-245.333-255.573 0-141.227 114.773-256 256-256h500.48l85.333-85.333 54.187 54.187-713.813 713.813-54.187-54.187zM329.813 533.333l341.333-341.333h-415.147c-94.293 0-170.667 76.373-170.667 170.667s76.373 170.667 170.667 170.667h73.813z" />
<glyph unicode="&#xe91f;" glyph-name="chevron-up" d="M106.88 215.040l5.76-5.12c13.011-10.932 29.945-17.574 48.431-17.574 21.138 0 40.249 8.685 53.957 22.681l296.973 304.013 296.96-304.64c13.731-14.077 32.886-22.807 54.080-22.807s40.349 8.731 54.065 22.792l0.015 0.016c13.389 13.806 21.642 32.659 21.642 53.44s-8.253 39.633-21.661 53.46l0.019-0.020-351.36 360.32c-13.731 14.077-32.886 22.807-54.080 22.807s-40.349-8.731-54.065-22.792l-0.015-0.016-350.72-361.6c-13.459-13.82-21.759-32.721-21.759-53.56 0-17.747 6.020-34.088 16.128-47.093l-0.13 0.173z" />
<glyph unicode="&#xe920;" glyph-name="chevron-down" d="M917.056 638.528l-5.76 5.312c-29.888 24.96-74.432 23.168-102.272-5.312l-296.96-304.384-297.088 304.384c-29.632 30.4-78.272 30.4-107.968 0-28.864-29.696-28.864-77.184 0-106.88l351.040-359.68c29.44-30.208 78.528-30.144 107.968 0l350.976 359.68c26.944 27.712 28.8 70.912 5.44 100.672l-5.376 6.208z" />
</font>
</defs>
</svg>
